<?xml version="1.0" encoding="UTF-8"?>
<!DOCTYPE svg PUBLIC "-//W3C//DTD SVG 1.1//EN" "http://www.w3.org/Graphics/SVG/1.1/DTD/svg11.dtd">
<!-- Creator: CorelDRAW X8 -->
<svg xmlns="http://www.w3.org/2000/svg" xml:space="preserve" width="1100mm" height="500mm" version="1.1" style="shape-rendering:geometricPrecision; text-rendering:geometricPrecision; image-rendering:optimizeQuality; fill-rule:evenodd; clip-rule:evenodd"
viewBox="0 0 110000 50000"
 xmlns:xlink="http://www.w3.org/1999/xlink">
 <defs>
  <style type="text/css">
   <![CDATA[
    .str0 {stroke:black;stroke-width:100}
    .str1 {stroke:black;stroke-width:500}
    .str2 {stroke:black;stroke-width:20}
    .fil36 {fill:none}
    .fil39 {fill:black;fill-rule:nonzero}
    .fil0 {fill:url(#id0)}
    .fil16 {fill:url(#id1)}
    .fil15 {fill:url(#id2)}
    .fil1 {fill:url(#id3)}
    .fil11 {fill:url(#id4)}
    .fil43 {fill:url(#id5)}
    .fil44 {fill:url(#id6)}
    .fil41 {fill:url(#id7)}
    .fil42 {fill:url(#id8)}
    .fil10 {fill:url(#id9)}
    .fil40 {fill:url(#id10)}
    .fil3 {fill:url(#id11)}
    .fil9 {fill:url(#id12)}
    .fil22 {fill:url(#id13)}
    .fil25 {fill:url(#id14)}
    .fil4 {fill:url(#id15)}
    .fil28 {fill:url(#id16)}
    .fil17 {fill:url(#id17)}
    .fil18 {fill:url(#id18)}
    .fil14 {fill:url(#id19)}
    .fil19 {fill:url(#id20)}
    .fil26 {fill:url(#id21)}
    .fil31 {fill:url(#id22)}
    .fil33 {fill:url(#id23)}
    .fil29 {fill:url(#id24)}
    .fil21 {fill:url(#id25)}
    .fil37 {fill:url(#id26)}
    .fil34 {fill:url(#id27)}
    .fil32 {fill:url(#id28)}
    .fil38 {fill:url(#id29)}
    .fil23 {fill:url(#id30)}
    .fil20 {fill:url(#id31)}
    .fil35 {fill:url(#id32)}
    .fil2 {fill:url(#id33)}
    .fil6 {fill:url(#id34)}
    .fil5 {fill:url(#id35)}
    .fil24 {fill:url(#id36)}
    .fil7 {fill:url(#id37)}
    .fil12 {fill:url(#id38)}
    .fil8 {fill:url(#id39)}
    .fil30 {fill:url(#id40)}
    .fil13 {fill:url(#id41)}
    .fil27 {fill:url(#id42)}
   ]]>
  </style>
  <linearGradient id="id0" gradientUnits="userSpaceOnUse" x1="7695.9" y1="21463.6" x2="46342.8" y2="21463.6">
   <stop offset="0" style="stop-opacity:1; stop-color:#886D52"/>
   <stop offset="0.14902" style="stop-opacity:1; stop-color:#B3945E"/>
   <stop offset="0.301961" style="stop-opacity:1; stop-color:#D0AF60"/>
   <stop offset="0.419608" style="stop-opacity:1; stop-color:#EFD679"/>
   <stop offset="0.541176" style="stop-opacity:1; stop-color:#FCEC8A"/>
   <stop offset="0.568627" style="stop-opacity:1; stop-color:#FEEC8A"/>
   <stop offset="0.65098" style="stop-opacity:1; stop-color:#F5DE81"/>
   <stop offset="0.768627" style="stop-opacity:1; stop-color:#DBC16C"/>
   <stop offset="0.878431" style="stop-opacity:1; stop-color:#C4A45B"/>
   <stop offset="1" style="stop-opacity:1; stop-color:#886D52"/>
  </linearGradient>
  <linearGradient id="id1" gradientUnits="userSpaceOnUse" x1="16917.8" y1="39902.8" x2="26893.8" y2="39902.8">
   <stop offset="0" style="stop-opacity:1; stop-color:black"/>
   <stop offset="1" style="stop-opacity:1; stop-color:black"/>
  </linearGradient>
  <linearGradient id="id2" gradientUnits="userSpaceOnUse" xlink:href="#id1" x1="16914" y1="9712.06" x2="26890" y2="9712.06">
  </linearGradient>
  <linearGradient id="id3" gradientUnits="userSpaceOnUse" x1="28439.9" y1="44996.2" x2="28439.9" y2="4758.86">
   <stop offset="0" style="stop-opacity:1; stop-color:#896D55"/>
   <stop offset="0.168627" style="stop-opacity:1; stop-color:#B2935C"/>
   <stop offset="0.301961" style="stop-opacity:1; stop-color:#CDA95D"/>
   <stop offset="0.45098" style="stop-opacity:1; stop-color:#F4DC7C"/>
   <stop offset="0.588235" style="stop-opacity:1; stop-color:#FFED8B"/>
   <stop offset="0.721569" style="stop-opacity:1; stop-color:#EDD376"/>
   <stop offset="0.819608" style="stop-opacity:1; stop-color:#D3B462"/>
   <stop offset="0.901961" style="stop-opacity:1; stop-color:#B79558"/>
   <stop offset="1" style="stop-opacity:1; stop-color:#8A6C50"/>
  </linearGradient>
  <linearGradient id="id4" gradientUnits="userSpaceOnUse" xlink:href="#id1" x1="27186.2" y1="9196.33" x2="27163.7" y2="10334.2">
  </linearGradient>
  <linearGradient id="id5" gradientUnits="userSpaceOnUse" xlink:href="#id1" x1="7226.21" y1="27263.9" x2="7476.08" y2="28713.5">
  </linearGradient>
  <linearGradient id="id6" gradientUnits="userSpaceOnUse" xlink:href="#id1" x1="7226.21" y1="37527.5" x2="7476.08" y2="38967.7">
  </linearGradient>
  <linearGradient id="id7" gradientUnits="userSpaceOnUse" xlink:href="#id1" x1="37244.3" y1="19005" x2="37277.9" y2="19408.1">
  </linearGradient>
  <linearGradient id="id8" gradientUnits="userSpaceOnUse" xlink:href="#id1" x1="37244.3" y1="9025.11" x2="37277.9" y2="9428.3">
  </linearGradient>
  <linearGradient id="id9" gradientUnits="userSpaceOnUse" xlink:href="#id1" x1="46334.1" y1="27376.7" x2="46587.3" y2="28786">
  </linearGradient>
  <linearGradient id="id10" gradientUnits="userSpaceOnUse" xlink:href="#id1" x1="46334.1" y1="17264.3" x2="46587.3" y2="18699.2">
  </linearGradient>
  <linearGradient id="id11" gradientUnits="userSpaceOnUse" xlink:href="#id1" x1="17226.6" y1="17475.9" x2="17342.7" y2="18140.6">
  </linearGradient>
  <linearGradient id="id12" gradientUnits="userSpaceOnUse" xlink:href="#id1" x1="27168.6" y1="37339.5" x2="27421.8" y2="38768.9">
  </linearGradient>
  <linearGradient id="id13" gradientUnits="userSpaceOnUse" xlink:href="#id1" x1="36276.9" y1="6251.54" x2="36489.9" y2="7021.32">
  </linearGradient>
  <linearGradient id="id14" gradientUnits="userSpaceOnUse" xlink:href="#id1" x1="37952.1" y1="9732.56" x2="37990.1" y2="9078.62">
  </linearGradient>
  <linearGradient id="id15" gradientUnits="userSpaceOnUse" xlink:href="#id1" x1="19216.6" y1="16476.5" x2="19536.8" y2="16739.6">
  </linearGradient>
  <linearGradient id="id16" gradientUnits="userSpaceOnUse" xlink:href="#id1" x1="30046.2" y1="26256.7" x2="30257.3" y2="27040.8">
  </linearGradient>
  <linearGradient id="id17" gradientUnits="userSpaceOnUse" xlink:href="#id1" x1="-172818" y1="75659.8" x2="-173622" y2="76645.6">
  </linearGradient>
  <linearGradient id="id18" gradientUnits="userSpaceOnUse" xlink:href="#id1" x1="27969.6" y1="5000.55" x2="28007.5" y2="4349.47">
  </linearGradient>
  <linearGradient id="id19" gradientUnits="userSpaceOnUse" xlink:href="#id1" x1="8954.47" y1="38996.7" x2="8460.8" y2="39218.5">
  </linearGradient>
  <linearGradient id="id20" gradientUnits="userSpaceOnUse" xlink:href="#id1" x1="28661.4" y1="9740.04" x2="28695.5" y2="9086.11">
  </linearGradient>
  <linearGradient id="id21" gradientUnits="userSpaceOnUse" xlink:href="#id1" x1="30317.4" y1="24993.2" x2="30354.9" y2="24338.2">
  </linearGradient>
  <linearGradient id="id22" gradientUnits="userSpaceOnUse" xlink:href="#id1" x1="8872.13" y1="29815.5" x2="8914.83" y2="29161.6">
  </linearGradient>
  <linearGradient id="id23" gradientUnits="userSpaceOnUse" xlink:href="#id1" x1="41893.3" y1="39785.1" x2="41966.7" y2="39065.3">
  </linearGradient>
  <linearGradient id="id24" gradientUnits="userSpaceOnUse" xlink:href="#id1" x1="28098.5" y1="29202.7" x2="27669.5" y2="29349.2">
  </linearGradient>
  <linearGradient id="id25" gradientUnits="userSpaceOnUse" xlink:href="#id1" x1="36262.7" y1="11036.3" x2="36477.2" y2="11825">
  </linearGradient>
  <linearGradient id="id26" gradientUnits="userSpaceOnUse" xlink:href="#id1" x1="-94099.6" y1="68775.4" x2="-94654.4" y2="69488.1">
  </linearGradient>
  <linearGradient id="id27" gradientUnits="userSpaceOnUse" xlink:href="#id1" x1="-114197" y1="68699" x2="-114752" y2="69411.6">
  </linearGradient>
  <linearGradient id="id28" gradientUnits="userSpaceOnUse" xlink:href="#id1" x1="28971.2" y1="39769.5" x2="29017.8" y2="39115.6">
  </linearGradient>
  <linearGradient id="id29" gradientUnits="userSpaceOnUse" xlink:href="#id1" x1="28837.9" y1="19708" x2="28874.7" y2="19054.1">
  </linearGradient>
  <linearGradient id="id30" gradientUnits="userSpaceOnUse" xlink:href="#id1" x1="46294" y1="6251.09" x2="46505" y2="7020.67">
  </linearGradient>
  <linearGradient id="id31" gradientUnits="userSpaceOnUse" xlink:href="#id1" x1="28651.2" y1="14541.8" x2="28685" y2="13937.9">
  </linearGradient>
  <linearGradient id="id32" gradientUnits="userSpaceOnUse" xlink:href="#id1" x1="8914.11" y1="19729.2" x2="8950.93" y2="19075.3">
  </linearGradient>
  <linearGradient id="id33" gradientUnits="userSpaceOnUse" xlink:href="#id1" x1="16679.3" y1="26492.1" x2="16900.8" y2="27905.9">
  </linearGradient>
  <linearGradient id="id34" gradientUnits="userSpaceOnUse" xlink:href="#id1" x1="24313" y1="29006.8" x2="24862.5" y2="30339.6">
  </linearGradient>
  <linearGradient id="id35" gradientUnits="userSpaceOnUse" xlink:href="#id1" x1="21451.4" y1="28768.8" x2="19556.5" y2="28845.7">
  </linearGradient>
  <linearGradient id="id36" gradientUnits="userSpaceOnUse" xlink:href="#id1" x1="37938.6" y1="4999.7" x2="37976.4" y2="4345.78">
  </linearGradient>
  <linearGradient id="id37" gradientUnits="userSpaceOnUse" xlink:href="#id1" x1="46537.3" y1="39705.1" x2="47379.6" y2="41591.6">
  </linearGradient>
  <linearGradient id="id38" gradientUnits="userSpaceOnUse" xlink:href="#id1" x1="42209.7" y1="29531.2" x2="41864.6" y2="29723.1">
  </linearGradient>
  <linearGradient id="id39" gradientUnits="userSpaceOnUse" xlink:href="#id1" x1="37403.9" y1="28570.8" x2="37625.5" y2="31379.7">
  </linearGradient>
  <linearGradient id="id40" gradientUnits="userSpaceOnUse" xlink:href="#id1" x1="38783.8" y1="19781.6" x2="38826.4" y2="19127.7">
  </linearGradient>
  <linearGradient id="id41" gradientUnits="userSpaceOnUse" xlink:href="#id1" x1="9797.38" y1="38740.7" x2="9500.33" y2="38867.8">
  </linearGradient>
  <linearGradient id="id42" gradientUnits="userSpaceOnUse" xlink:href="#id1" x1="30336.8" y1="29796.2" x2="30374.8" y2="29142.3">
  </linearGradient>
 </defs>
 <g id="Слой_x0020_1">
  <metadata id="CorelCorpID_0Corel-Layer"/>
  <polygon class="fil0" points="7696,19861 46343,19861 46343,23067 8613,23067 "/>
  <polygon class="fil1" points="26853,4759 30027,4759 30027,44996 26853,44996 "/>
  <polygon class="fil2 str0" points="16901,24672 16901,34653 16099,34653 16099,24672 "/>
  <polygon class="fil3 str0" points="16914,14706 16911,24690 17722,24687 17722,14706 "/>
  <polygon class="fil4 str0" points="22300,19201 26886,14768 26886,15515 22320,19885 17732,15452 17732,14716 "/>
  <polygon class="fil5 str0" points="20000,29570 24153,29558 24367,29960 19810,29962 "/>
  <polygon class="fil6 str0" points="21542,24657 16933,34649 17795,34653 21854,25499 26699,34659 27488,34668 22212,24657 "/>
  <polygon class="fil7 str1" points="43195,33370 36703,47895 37697,47895 43648,34594 49813,47895 50844,47895 44169,33370 "/>
  <polygon class="fil8 str1" points="37625,24955 37625,44785 36824,44785 36824,24955 "/>
  <polygon class="fil9 str1" points="27690,34796 27690,44739 26889,44739 26889,34796 "/>
  <polygon class="fil10 str1" points="46856,24869 46856,34672 46054,34672 46054,24869 "/>
  <polygon class="fil11 str2" points="26833,4761 26837,24700 27669,24695 27669,4761 "/>
  <polygon class="fil12 str1" points="37504,33333 37514,32539 46183,26350 46183,27170 "/>
  <polygon class="fil13 str1" points="7706,39601 16096,34943 16901,34943 7716,40137 "/>
  <polygon class="fil14 str1" points="16914,44901 15973,44903 7710,40080 8147,39827 "/>
  <path class="fil15 str0" d="M21902 4736c2755,0 4988,2228 4988,4976 0,2748 -2233,4977 -4988,4977 -2755,0 -4988,-2229 -4988,-4977 0,-2748 2233,-4976 4988,-4976zm2 263c2315,0 4191,2116 4191,4727 0,2611 -1876,4728 -4191,4728 -2315,0 -4191,-2117 -4191,-4728 0,-2611 1876,-4727 4191,-4727z"/>
  <path class="fil16 str1" d="M21906 34926c2755,0 4988,2228 4988,4977 0,2748 -2233,4976 -4988,4976 -2755,0 -4988,-2228 -4988,-4976 0,-2749 2233,-4977 4988,-4977zm2 263c2314,0 4191,2117 4191,4728 0,2611 -1877,4728 -4191,4728 -2315,0 -4191,-2117 -4191,-4728 0,-2611 1876,-4728 4191,-4728z"/>
  <path class="fil17 str0" d="M10611 890c2248,0 4280,801 5736,2090l0 1404c-1187,-1877 -3311,-3128 -5734,-3128 -3720,0 -6736,2950 -6736,6588 0,3638 3016,6587 6736,6587 2412,0 4527,-1239 5717,-3102l17 0 0 1338c-1456,1290 -3488,2091 -5736,2091 -4429,0 -8018,-3105 -8018,-6934 0,-3830 3589,-6934 8018,-6934z"/>
  <polygon class="fil18 str0" points="34474,5150 34117,5150 26873,5150 26873,4759 34092,4758 34190,4763 34274,4764 34340,4767 34465,4776 "/>
  <polygon class="fil19 str0" points="34476,9890 27681,9890 27681,9498 34477,9497 "/>
  <polygon class="fil20 str0" points="34467,14742 27670,14742 27670,14350 34469,14349 "/>
  <path class="fil21 str0" d="M34202 9505c1452,0 2629,1174 2629,2622 0,1448 -1177,2622 -2629,2622 -411,0 -800,-94 -1147,-261 126,16 254,25 385,25 1452,0 2629,-1071 2629,-2393 0,-1321 -1177,-2393 -2629,-2393 -117,0 -232,7 -345,21 337,-156 712,-243 1107,-243z"/>
  <path class="fil22 str0" d="M34231 4757c1442,0 2610,1146 2610,2559 0,1414 -1168,2560 -2610,2560 -408,0 -794,-92 -1138,-256 125,16 252,25 382,25 1441,0 2609,-1046 2609,-2336 0,-975 -668,-1811 -1617,-2160 -306,-113 -641,-175 -992,-175 -116,0 -230,7 -342,20 306,-139 643,-222 999,-235 33,-2 66,-2 99,-2z"/>
  <path class="fil23 str0" d="M44267 4757c1428,0 2586,1145 2586,2558 0,1414 -1158,2559 -2586,2559 -404,0 -787,-92 -1128,-255 124,16 250,24 378,24 1428,0 2586,-1045 2586,-2334 0,-1290 -1158,-2335 -2586,-2335 -114,0 -227,7 -338,20 331,-152 699,-237 1088,-237z"/>
  <polygon class="fil24 str0" points="44491,5145 44315,5149 36834,5149 36834,4758 44249,4756 44317,4758 44394,4760 44437,4763 "/>
  <polygon class="fil25 str0" points="44426,9865 44367,9865 44328,9873 44104,9882 44005,9882 43884,9882 36859,9882 36859,9491 44436,9489 44439,9860 "/>
  <polygon class="fil26 str0" points="36830,25141 29433,25141 29219,25143 29248,25060 29248,24750 36833,24752 "/>
  <polygon class="fil27 str0" points="36832,29946 29502,29946 29392,29946 29242,29938 29242,29923 29242,29554 36833,29553 "/>
  <path class="fil28 str0" d="M29477 24734c-1428,0 -2586,1167 -2586,2607 0,1440 1158,2607 2586,2607 405,0 787,-93 1128,-260 -123,16 -249,25 -378,25 -1428,0 -2586,-1065 -2586,-2379 0,-1313 1158,-2378 2586,-2378 115,0 228,6 339,20 -331,-155 -700,-242 -1089,-242z"/>
  <polygon class="fil29 str0" points="27065,34670 27911,34666 34620,29946 33672,29946 "/>
  <polygon class="fil30 str0" points="46050,19931 37559,19931 37559,19540 46051,19538 "/>
  <polygon class="fil31 str0" points="16161,29965 7643,29965 7643,29574 16163,29572 "/>
  <polygon class="fil32 str1" points="36922,39919 27631,39919 27631,39528 36924,39526 "/>
  <polygon class="fil33 str1" points="46158,39953 41203,39953 41382,39519 45971,39518 "/>
  <path class="fil34 str0" d="M12481 14646c1553,0 2957,579 3962,1511l0 1015c-820,-1357 -2286,-2261 -3959,-2261 -2570,0 -4653,2132 -4653,4762 0,2630 2083,4762 4653,4762 1665,0 3126,-896 3948,-2242l11 0 0 967c-1005,932 -2409,1511 -3962,1511 -3058,0 -5537,-2244 -5537,-5012 0,-2769 2479,-5013 5537,-5013z"/>
  <polygon class="fil35 str0" points="15198,19879 7855,19879 7855,19487 15200,19486 "/>
  <polyline class="fil36" points="27699,24741 26897,24741 26897,14760 27699,14760 "/>
  <path class="fil37 str0" d="M32429 14722c1551,0 2953,579 3957,1512l0 1015c-818,-1357 -2283,-2262 -3955,-2262 -2566,0 -4647,2132 -4647,4762 0,2630 2081,4762 4647,4762 1664,0 3123,-895 3944,-2242l11 0 0 968c-1004,932 -2406,1511 -3957,1511 -3054,0 -5530,-2244 -5530,-5013 0,-2768 2476,-5013 5530,-5013z"/>
  <polygon class="fil38 str0" points="35122,19858 27778,19858 27778,19466 35123,19465 "/>
  <path class="fil39" d="M57300 7113l3387 0 0 4306 -478 0 0 -3898 -2431 0 0 3898 -478 0 0 -4306zm4477 1122l452 0 0 585c179,-223 385,-388 618,-498 234,-110 494,-165 782,-165 501,0 930,163 1286,487 356,325 535,717 535,1174 0,468 -178,863 -531,1190 -353,326 -779,489 -1278,489 -280,0 -538,-53 -774,-158 -235,-106 -448,-263 -638,-472l0 1716 -452 0 0 -4348zm1819 317c-393,0 -723,123 -991,370 -269,247 -403,554 -403,921 0,241 60,458 180,650 119,192 291,344 513,457 224,113 459,169 706,169 244,0 473,-57 688,-171 214,-113 385,-272 512,-475 127,-204 190,-418 190,-641 0,-226 -63,-440 -189,-642 -126,-202 -295,-359 -509,-470 -213,-112 -446,-168 -697,-168zm4377 -395c543,0 995,177 1353,531 325,323 488,706 488,1148 0,444 -172,831 -516,1163 -343,332 -786,498 -1325,498 -542,0 -986,-166 -1329,-498 -344,-332 -516,-719 -516,-1163 0,-440 163,-822 488,-1145 358,-356 810,-534 1357,-534zm-2 401c-378,0 -701,125 -972,376 -271,251 -406,555 -406,911 0,229 62,443 185,642 124,197 291,350 501,458 209,108 441,162 692,162 251,0 482,-54 692,-162 210,-108 377,-261 501,-458 123,-199 185,-413 185,-642 0,-356 -136,-660 -409,-911 -271,-251 -594,-376 -969,-376zm5656 1806l382 182c-126,220 -271,399 -436,535 -164,135 -349,239 -555,310 -207,71 -440,106 -700,106 -577,0 -1028,-170 -1353,-510 -326,-340 -488,-723 -488,-1151 0,-403 138,-763 414,-1078 348,-400 816,-601 1402,-601 603,0 1086,206 1445,616 256,290 387,652 391,1087l-3188 0c9,369 141,671 394,905 255,236 569,354 942,354 181,0 357,-28 527,-84 171,-56 316,-130 435,-223 120,-93 249,-241 388,-448zm4 -858c-61,-219 -149,-393 -266,-524 -117,-131 -271,-236 -462,-316 -192,-80 -393,-120 -603,-120 -349,0 -648,100 -898,301 -184,147 -321,366 -415,659l2644 0zm1334 -1271l451 0 0 1341 1643 -1341 622 0 -1783 1453 1926 1731 -642 0 -1623 -1472 -143 114 0 1358 -451 0 0 -3184zm2942 0l2317 0 0 353 -936 0 0 2831 -452 0 0 -2831 -929 0 0 -353z"/>
  <path class="fil39" d="M61850 17669l-376 261c-207,-244 -456,-429 -747,-555 -290,-126 -609,-189 -958,-189 -379,0 -731,83 -1056,248 -324,165 -574,387 -752,665 -178,277 -268,591 -268,938 0,526 199,965 598,1316 398,351 901,527 1508,527 668,0 1225,-236 1675,-707l376 258c-238,272 -534,484 -890,633 -355,149 -752,224 -1191,224 -834,0 -1493,-251 -1974,-753 -404,-422 -607,-934 -607,-1533 0,-630 245,-1160 734,-1590 490,-431 1104,-646 1841,-646 445,0 846,79 1205,237 359,159 653,381 882,666zm2556 249c543,0 995,177 1352,531 326,323 488,706 488,1148 0,444 -171,832 -515,1163 -344,332 -786,498 -1325,498 -543,0 -986,-166 -1330,-498 -344,-331 -515,-719 -515,-1163 0,-440 162,-822 488,-1145 357,-356 810,-534 1357,-534zm-2 402c-378,0 -701,124 -972,375 -271,251 -406,555 -406,911 0,229 62,443 184,642 124,198 291,350 502,458 209,108 440,162 692,162 251,0 482,-54 691,-162 211,-108 378,-260 502,-458 122,-199 184,-413 184,-642 0,-356 -136,-660 -408,-911 -271,-251 -594,-375 -969,-375zm3704 2860l-1026 0 0 -3184 1010 0c386,0 663,80 834,239 169,159 254,346 254,560 0,323 -158,541 -474,656 458,147 687,430 687,849 0,586 -428,880 -1285,880zm-574 -2830l0 989 296 0c270,0 447,-10 529,-29 83,-20 161,-68 234,-144 73,-77 109,-178 109,-305 0,-132 -37,-242 -114,-331 -76,-90 -156,-142 -240,-158 -84,-14 -257,-22 -518,-22l-296 0zm0 1367l0 1115 488 0c230,0 395,-13 493,-40 99,-26 184,-83 254,-171 71,-88 106,-198 106,-333 0,-174 -61,-312 -183,-416 -121,-103 -282,-155 -481,-155l-677 0zm2661 -1721l452 0 0 585c179,-222 385,-388 619,-498 233,-110 493,-165 781,-165 501,0 930,163 1286,487 357,325 535,717 535,1174 0,468 -177,864 -530,1190 -354,326 -780,489 -1279,489 -280,0 -538,-53 -773,-158 -236,-106 -449,-263 -639,-472l0 1716 -452 0 0 -4348zm1819 318c-393,0 -723,122 -991,369 -269,247 -403,554 -403,921 0,241 60,458 180,650 119,193 291,344 513,457 224,113 460,169 706,169 244,0 473,-57 688,-171 214,-113 385,-271 512,-475 127,-204 191,-418 191,-641 0,-226 -64,-440 -190,-642 -126,-202 -295,-359 -509,-470 -212,-112 -446,-167 -697,-167zm5682 1811l383 182c-126,220 -271,399 -436,535 -165,135 -350,239 -556,310 -207,71 -439,106 -699,106 -578,0 -1028,-170 -1354,-510 -325,-339 -488,-723 -488,-1151 0,-403 139,-763 414,-1078 349,-400 817,-601 1402,-601 604,0 1086,206 1446,616 256,290 386,652 391,1087l-3188 0c9,369 141,671 394,905 255,236 569,354 942,354 180,0 356,-28 527,-84 170,-56 315,-130 435,-223 119,-92 249,-241 387,-448zm5 -858c-61,-219 -150,-393 -266,-524 -117,-131 -271,-236 -463,-316 -191,-79 -393,-119 -603,-119 -349,0 -647,99 -898,300 -183,147 -321,366 -415,659l2645 0zm5174 -1271l130 0 1191 3184 -473 0 -874 -2339 -1359 2339 -84 0 -1359 -2349 -873 2349 -473 0 1203 -3184 123 0 1424 2491 1424 -2491zm4973 2129l383 182c-127,220 -272,399 -437,535 -164,135 -349,239 -555,310 -207,71 -440,106 -700,106 -577,0 -1028,-170 -1353,-510 -326,-339 -488,-723 -488,-1151 0,-403 138,-763 414,-1078 348,-400 816,-601 1402,-601 603,0 1086,206 1445,616 256,290 387,652 391,1087l-3187 0c8,369 140,671 394,905 254,236 568,354 941,354 181,0 357,-28 527,-84 171,-56 316,-130 435,-223 120,-92 249,-241 388,-448zm4 -858c-61,-219 -149,-393 -266,-524 -117,-131 -271,-236 -462,-316 -192,-79 -393,-119 -603,-119 -349,0 -648,99 -898,300 -184,147 -321,366 -415,659l2644 0zm3844 378l-2059 0 0 1535 -451 0 0 -3184 451 0 0 1265 2059 0 0 -1265 452 0 0 3184 -452 0 0 -1535zm3972 0l-2058 0 0 1535 -452 0 0 -3184 452 0 0 1265 2058 0 0 -1265 452 0 0 3184 -452 0 0 -1535zm3135 -1727c543,0 995,177 1352,531 326,323 488,706 488,1148 0,444 -171,832 -515,1163 -344,332 -786,498 -1325,498 -543,0 -986,-166 -1330,-498 -344,-331 -515,-719 -515,-1163 0,-440 162,-822 488,-1145 357,-356 810,-534 1357,-534zm-3 402c-377,0 -700,124 -971,375 -271,251 -406,555 -406,911 0,229 61,443 184,642 124,198 291,350 502,458 209,108 440,162 691,162 252,0 483,-54 692,-162 210,-108 378,-260 502,-458 122,-199 184,-413 184,-642 0,-356 -136,-660 -408,-911 -271,-251 -594,-375 -970,-375zm3130 36l0 2824 -451 0 0 -3184 1786 0 0 360 -1335 0zm3617 -438c544,0 995,177 1353,531 325,323 488,706 488,1148 0,444 -171,832 -516,1163 -343,332 -786,498 -1325,498 -542,0 -986,-166 -1329,-498 -344,-331 -516,-719 -516,-1163 0,-440 163,-822 489,-1145 357,-356 810,-534 1356,-534zm-2 402c-377,0 -700,124 -971,375 -272,251 -407,555 -407,911 0,229 62,443 185,642 124,198 291,350 502,458 209,108 440,162 691,162 252,0 483,-54 692,-162 210,-108 377,-260 501,-458 123,-199 185,-413 185,-642 0,-356 -136,-660 -408,-911 -271,-251 -595,-375 -970,-375z"/>
  <path class="fil39" d="M57084 27172l558 0 1140 1672 1144 -1672 558 0 -1424 2080 1517 2226 -558 0 -1238 -1817 -1245 1817 -558 0 1524 -2226 -1418 -2080zm4226 1121l451 0 0 586c180,-223 385,-389 619,-499 234,-110 494,-165 781,-165 502,0 930,163 1287,488 356,325 534,717 534,1173 0,468 -177,864 -530,1191 -353,326 -779,489 -1278,489 -280,0 -538,-53 -774,-158 -236,-106 -448,-263 -639,-472l0 1715 -451 0 0 -4348zm1818 318c-393,0 -723,123 -990,370 -269,247 -403,554 -403,920 0,241 60,458 179,650 120,193 291,345 514,458 223,113 459,169 706,169 243,0 472,-57 687,-171 215,-113 385,-272 513,-476 127,-204 190,-418 190,-641 0,-225 -63,-439 -189,-641 -127,-202 -296,-359 -510,-470 -212,-112 -446,-168 -697,-168zm3157 -318l0 2359 2594 -2359 36 0 0 3185 -452 0 0 -2341 -2574 2341 -56 0 0 -3185 452 0zm7067 662l-360 202c-312,-372 -738,-558 -1278,-558 -432,0 -791,125 -1076,374 -285,249 -427,551 -427,906 0,232 65,450 197,654 130,204 311,363 540,476 228,113 484,169 769,169 520,0 945,-186 1275,-558l360 214c-170,229 -397,406 -681,533 -286,126 -610,189 -974,189 -560,0 -1024,-160 -1392,-479 -369,-320 -553,-708 -553,-1166 0,-306 87,-592 259,-856 172,-264 409,-470 710,-618 302,-148 638,-222 1011,-222 235,0 461,32 679,96 217,64 402,148 553,251 153,103 281,234 388,393zm478 -662l2317 0 0 354 -936 0 0 2831 -451 0 0 -2831 -930 0 0 -354zm3385 0l0 2359 2595 -2359 35 0 0 3185 -451 0 0 -2341 -2575 2341 -55 0 0 -3185 451 0zm7154 0l0 3185 -452 0 0 -548c-190,209 -403,366 -640,470 -235,104 -494,156 -774,156 -498,0 -925,-163 -1278,-489 -353,-327 -529,-723 -529,-1191 0,-456 179,-848 535,-1173 355,-325 784,-488 1285,-488 289,0 550,55 785,165 233,110 439,276 616,499l0 -586 452 0zm-1818 318c-252,0 -486,56 -698,168 -214,111 -383,268 -509,470 -126,202 -189,416 -189,641 0,223 63,437 190,641 127,204 298,363 512,476 215,114 445,171 691,171 247,0 483,-56 704,-169 222,-113 393,-265 512,-458 120,-192 180,-409 180,-650 0,-366 -134,-673 -403,-920 -268,-247 -598,-370 -990,-370zm5352 1331l-2059 0 0 1536 -452 0 0 -3185 452 0 0 1266 2059 0 0 -1266 451 0 0 3185 -451 0 0 -1536zm4888 -987l-359 202c-312,-372 -739,-558 -1279,-558 -431,0 -790,125 -1075,374 -285,249 -428,551 -428,906 0,232 66,450 197,654 131,204 311,363 540,476 228,113 485,169 770,169 520,0 945,-186 1275,-558l359 214c-169,229 -396,406 -680,533 -286,126 -610,189 -974,189 -560,0 -1024,-160 -1393,-479 -368,-320 -552,-708 -552,-1166 0,-306 86,-592 259,-856 172,-264 409,-470 710,-618 302,-148 638,-222 1011,-222 235,0 461,32 679,96 217,64 401,148 553,251 153,103 281,234 387,393zm870 -662l452 0 0 1342 1642 -1342 622 0 -1783 1453 1926 1732 -642 0 -1622 -1473 -143 114 0 1359 -452 0 0 -3185zm5006 -78c544,0 995,177 1353,532 325,323 488,706 488,1147 0,444 -172,832 -516,1164 -343,332 -786,498 -1325,498 -542,0 -986,-166 -1329,-498 -344,-332 -516,-720 -516,-1164 0,-439 163,-821 488,-1144 358,-357 811,-535 1357,-535zm-2 402c-377,0 -700,125 -972,376 -271,251 -406,555 -406,910 0,229 62,443 185,642 124,198 291,351 501,459 210,108 441,162 692,162 251,0 483,-54 692,-162 210,-108 377,-261 501,-459 123,-199 185,-413 185,-642 0,-355 -136,-659 -408,-910 -271,-251 -595,-376 -970,-376zm3130 36l0 2825 -451 0 0 -3185 1786 0 0 360 -1335 0zm3617 -438c544,0 995,177 1353,532 325,323 488,706 488,1147 0,444 -172,832 -516,1164 -343,332 -786,498 -1325,498 -542,0 -986,-166 -1329,-498 -344,-332 -516,-720 -516,-1164 0,-439 163,-821 488,-1144 358,-357 810,-535 1357,-535zm-2 402c-377,0 -701,125 -972,376 -271,251 -406,555 -406,910 0,229 62,443 185,642 124,198 291,351 501,459 209,108 441,162 692,162 251,0 483,-54 692,-162 210,-108 377,-261 501,-459 123,-199 185,-413 185,-642 0,-355 -136,-659 -408,-910 -272,-251 -595,-376 -970,-376z"/>
  <path class="fil39" d="M60972 41442l-498 0 0 -3308 -3147 3308 -107 0 0 -4306 478 0 0 3358 3166 -3358 108 0 0 4306zm4507 -2522l-360 201c-312,-371 -738,-557 -1278,-557 -432,0 -791,125 -1076,374 -285,248 -427,550 -427,906 0,232 65,450 197,654 130,204 311,363 540,476 228,113 484,169 769,169 520,0 945,-186 1275,-558l360 214c-170,229 -397,406 -681,532 -286,126 -610,189 -974,189 -560,0 -1024,-160 -1392,-478 -369,-320 -553,-708 -553,-1166 0,-307 87,-593 259,-856 172,-264 409,-470 710,-618 302,-148 638,-222 1011,-222 235,0 461,32 679,96 217,64 402,148 553,251 153,103 281,234 388,393zm870 -662l451 0 0 1341 1643 -1341 622 0 -1783 1453 1925 1731 -641 0 -1623 -1472 -143 114 0 1358 -451 0 0 -3184zm2955 0l471 0 1217 2442 1182 -2442 483 0 -2105 4348 -483 0 690 -1425 -1455 -2923zm7365 662l-359 201c-312,-371 -738,-557 -1279,-557 -431,0 -790,125 -1075,374 -285,248 -428,550 -428,906 0,232 66,450 197,654 131,204 311,363 541,476 228,113 484,169 769,169 520,0 945,-186 1275,-558l359 214c-169,229 -396,406 -680,532 -286,126 -610,189 -974,189 -560,0 -1024,-160 -1393,-478 -368,-320 -552,-708 -552,-1166 0,-307 86,-593 259,-856 172,-264 409,-470 710,-618 302,-148 638,-222 1011,-222 235,0 461,32 679,96 217,64 401,148 553,251 153,103 281,234 387,393zm4297 0l-360 201c-312,-371 -738,-557 -1278,-557 -432,0 -790,125 -1076,374 -284,248 -427,550 -427,906 0,232 65,450 197,654 131,204 311,363 540,476 228,113 485,169 769,169 520,0 946,-186 1275,-558l360 214c-169,229 -396,406 -681,532 -285,126 -609,189 -974,189 -560,0 -1023,-160 -1392,-478 -369,-320 -552,-708 -552,-1166 0,-307 86,-593 259,-856 171,-264 408,-470 709,-618 302,-148 639,-222 1012,-222 234,0 460,32 678,96 217,64 402,148 554,251 152,103 281,234 387,393zm478 -662l2318 0 0 354 -937 0 0 2830 -451 0 0 -2830 -930 0 0 -354zm3960 3184l-1026 0 0 -3184 1011 0c385,0 663,80 833,239 170,160 255,347 255,561 0,322 -158,540 -475,655 458,147 687,430 687,849 0,587 -428,880 -1285,880zm-574 -2830l0 989 296 0c271,0 448,-10 530,-29 83,-20 160,-68 233,-144 73,-77 110,-178 110,-305 0,-131 -38,-241 -114,-330 -77,-90 -156,-142 -241,-158 -84,-15 -256,-23 -518,-23l-296 0zm0 1367l0 1116 488 0c230,0 395,-13 494,-40 98,-26 183,-83 253,-171 71,-88 106,-199 106,-334 0,-174 -61,-312 -182,-416 -122,-103 -283,-155 -482,-155l-677 0zm6168 -1721l0 3184 -452 0 0 -547c-190,209 -402,365 -639,469 -236,104 -495,156 -775,156 -498,0 -924,-163 -1277,-488 -353,-327 -529,-723 -529,-1191 0,-457 178,-848 534,-1173 356,-325 784,-488 1285,-488 289,0 550,55 785,165 234,110 439,276 616,499l0 -586 452 0zm-1817 318c-253,0 -486,56 -699,168 -213,111 -383,268 -509,469 -126,202 -189,416 -189,642 0,223 63,437 190,641 128,204 298,363 513,476 214,114 445,171 690,171 247,0 483,-56 704,-169 223,-113 393,-265 513,-458 119,-192 179,-409 179,-650 0,-367 -134,-674 -403,-920 -268,-247 -598,-370 -989,-370z"/>
  <polygon class="fil40 str0" points="46856,14711 46856,24692 46054,24692 46054,14711 "/>
  <polygon class="fil41 str0" points="37625,14743 37625,24732 36824,24732 36824,14743 "/>
  <polygon class="fil42 str0" points="37625,4763 37625,14753 36824,14753 36824,4763 "/>
  <polygon class="fil43 str0" points="7752,24687 7752,34751 6939,34761 6939,24687 "/>
  <polygon class="fil44 str1" points="7752,34967 7741,44977 6939,44977 6939,34967 "/>
 </g>
</svg>
